<?xml version="1.0" encoding="utf-8"?>
<!-- Generator: Adobe Illustrator 25.1.0, SVG Export Plug-In . SVG Version: 6.00 Build 0)  -->
<svg version="1.1" xmlns="http://www.w3.org/2000/svg" xmlns:xlink="http://www.w3.org/1999/xlink" x="0px" y="0px"
	 viewBox="0 0 2988.7 957.1" style="enable-background:new 0 0 2988.7 957.1;" xml:space="preserve">
<style type="text/css">
	.st0{fill:#81A7CB;stroke:#000000;stroke-width:6;stroke-miterlimit:10;}
	.st1{fill:none;stroke:#000000;stroke-width:6;stroke-miterlimit:10;}
	.st2{stroke:#000000;stroke-width:6;stroke-miterlimit:10;}
	.st3{font-family:'Purista-SemiBold';}
	.st4{font-size:34px;}
	.st5{letter-spacing:-0.8;}
	.st6{letter-spacing:-2.5;}
	.st7{fill:none;stroke:#141414;stroke-width:3;stroke-miterlimit:10;}
</style>
<rect x="705" y="807.4" class="st0" width="131.6" height="78.5"/>
<path class="st1" d="M753.1,827h35.8c10.9,0,19.7,8.8,19.7,19.7l0,0l0,0c0,10.9-8.8,19.7-19.7,19.8h-35.8
	c-10.9-0.1-19.7-8.9-19.7-19.8l0,0C733.4,835.8,742.2,827,753.1,827L753.1,827z"/>
<rect x="102.5" y="807.4" class="st0" width="131.6" height="78.5"/>
<path class="st1" d="M150.6,827h35.7c10.9,0,19.7,8.8,19.8,19.7l0,0c0,10.9-8.9,19.8-19.8,19.8h-35.7c-10.9,0-19.8-8.9-19.8-19.8
	l0,0C130.9,835.8,139.7,827,150.6,827z"/>
<line class="st1" x1="102.5" y1="807.3" x2="234.2" y2="885.8"/>
<line class="st1" x1="102.5" y1="885.8" x2="234.1" y2="807.4"/>
<rect x="1903.6" y="807.4" class="st0" width="131.6" height="78.5"/>
<line class="st1" x1="1903.5" y1="885.8" x2="2035.2" y2="807.4"/>
<rect x="2814.3" y="807.3" class="st0" width="131.6" height="78.5"/>
<polygon class="st1" points="2917.7,866.1 2917.5,826.9 2842.7,866.2 2842.7,826.9 "/>
<rect x="404.2" y="807.4" class="st0" width="131.6" height="78.5"/>
<circle class="st2" cx="470" cy="846.6" r="15.6"/>
<rect x="1300.2" y="807.4" class="st0" width="131.6" height="78.5"/>
<line class="st1" x1="1300.2" y1="807.3" x2="1431.9" y2="885.8"/>
<line class="st1" x1="1300.2" y1="885.8" x2="1431.8" y2="807.4"/>
<line class="st1" x1="1366" y1="807.3" x2="1366" y2="885.8"/>
<rect x="1599.4" y="807.6" class="st0" width="131.6" height="78.5"/>
<line class="st1" x1="1600" y1="846.9" x2="1731.6" y2="847"/>
<line class="st1" x1="1665.2" y1="807.1" x2="1665.2" y2="885.5"/>
<rect x="2512.2" y="807.4" class="st0" width="131.6" height="78.5"/>
<polyline class="st1" points="2643.9,807.4 2578.1,846.5 2643.9,885.8 "/>
<rect x="2210.6" y="807.4" class="st0" width="131.6" height="78.5"/>
<path class="st1" d="M2316.7,866.5c-10.9-0.1-19.7-8.9-19.7-19.8l0,0c0-10.9,8.8-19.7,19.7-19.7l0,0"/>
<path class="st1" d="M2237.6,826.8c10.9,0,19.7,8.8,19.7,19.7l0,0c0,10.9-8.8,19.7-19.7,19.8"/>
<line class="st1" x1="2257.3" y1="846.5" x2="2297" y2="846.5"/>
<rect x="1457.4" y="3" class="st0" width="131.6" height="78.4"/>
<line class="st1" x1="1457.4" y1="81.4" x2="1457.4" y2="127.5"/>
<rect x="403.6" y="417.2" class="st0" width="131.6" height="78.5"/>
<path class="st1" d="M451.7,436.8h35.7c10.9,0,19.7,8.8,19.8,19.7l0,0c0,10.9-8.9,19.8-19.8,19.8h-35.7c-10.9,0-19.8-8.9-19.8-19.8
	l0,0C432,445.6,440.8,436.8,451.7,436.8z"/>
<rect x="2511.2" y="417.2" class="st0" width="131.6" height="78.5"/>
<line class="st1" x1="2511.1" y1="476.6" x2="2642.7" y2="476.6"/>
<rect x="1001.2" y="807.4" class="st0" width="131.6" height="78.5"/>
<line class="st1" x1="1001.2" y1="807.3" x2="1132.8" y2="885.8"/>
<line class="st1" x1="1001.1" y1="885.8" x2="1132.8" y2="807.4"/>
<rect x="1458.5" y="417.2" class="st0" width="131.6" height="78.5"/>
<line class="st1" x1="1458.6" y1="417.1" x2="1590.2" y2="495.6"/>
<line class="st1" x1="1458.5" y1="495.6" x2="1590.1" y2="417.2"/>
<text transform="matrix(1.18 0 0 1 1419.2998 560.5)" class="st3 st4">Streitkräfte</text>
<text transform="matrix(1.18 0 0 1 334.6997 560.5)" class="st3 st4">P</text>
<text transform="matrix(1.18 0 0 1 358.418 560.5)" class="st3 st4">anzertruppen</text>
<text transform="matrix(1.18 0 0 1 2505.3994 560.5)" class="st3 st4">Logistik</text>
<text transform="matrix(1.18 0 0 1 0 950)" class="st3 st4">Mechan. Infanterie</text>
<text transform="matrix(1.18 0 0 1 399.0996 950)" class="st3 st4">Artillerie</text>
<text transform="matrix(1.18 0 0 1 655.6997 950)" class="st3 st4 st5">K</text>
<text transform="matrix(1.18 0 0 1 678.71 950)" class="st3 st4">ampfpanzer</text>
<text transform="matrix(1.18 0 0 1 980.6997 950)" class="st3 st4">Infanterie</text>
<text transform="matrix(1.18 0 0 1 1216.761 950)" class="st3 st4">Motor. Infanterie</text>
<text transform="matrix(1.18 0 0 1 1531.6997 950)" class="st3 st4">Sanitätsdienst</text>
<text transform="matrix(1.18 0 0 1 1870.8999 950)" class="st3 st4">Aufklärung</text>
<text transform="matrix(1.18 0 0 1 2141.1001 950)" class="st3 st4">Instandsetzung</text>
<text transform="matrix(1.18 0 0 1 2477.1001 950)" class="st3 st4">Versorgung</text>
<text transform="matrix(1.18 0 0 1 2783.5 950)" class="st3 st4">Luftlogistik</text>
<text transform="matrix(1.18 0 0 1 1355.5996 170.8999)" class="st3 st4 st6">T</text>
<text transform="matrix(1.18 0 0 1 1374.9517 170.8999)" class="st3 st4">ask Force Hellcat</text>
<polyline class="st7" points="2578.3,378.8 2578.3,259.1 469.6,259.1 469.6,378.8 "/>
<line class="st7" x1="1524.4" y1="378.2" x2="1524.4" y2="259.1"/>
<line class="st7" x1="1524.4" y1="259.1" x2="1524.4" y2="189.9"/>
<polyline class="st7" points="770.8,770 770.8,640.6 169.2,640.6 169.2,770 "/>
<line class="st7" x1="470.2" y1="769.3" x2="470.2" y2="640.6"/>
<line class="st7" x1="470.2" y1="640.6" x2="470.2" y2="582.9"/>
<polyline class="st7" points="2878.8,770 2878.8,652.2 2277.3,652.2 2277.3,770 "/>
<line class="st7" x1="2578.2" y1="769.4" x2="2578.2" y2="652.2"/>
<line class="st7" x1="2578.2" y1="652.2" x2="2578.2" y2="583.2"/>
<polyline class="st7" points="1969.4,770 1969.4,651.9 1064.9,651.9 1064.9,770 "/>
<line class="st7" x1="1524.6" y1="651.9" x2="1524.6" y2="582.9"/>
<line class="st7" x1="1366" y1="770" x2="1366" y2="651.9"/>
<line class="st7" x1="1665.2" y1="770.3" x2="1665.2" y2="652.2"/>
</svg>
