<svg width="219" height="219" viewBox="0 0 219 219" xmlns="http://www.w3.org/2000/svg">
    <path fill-rule="evenodd" clip-rule="evenodd"
        d="M151.708 91.6109H173.161C198.546 91.6109 219 71.1567 219 45.7721C219 20.5208 198.546 0 173.161 0C147.843 0 127.256 20.5208 127.389 45.7721V67.359H91.6775V45.7721C91.6775 20.5208 71.1567 0 45.9054 0C20.5208 0 0 20.5208 0 45.7721C0 71.1567 20.6541 91.8108 45.9054 91.6109H67.359V127.456H45.9054C20.5208 127.456 0 147.91 0 173.161C0 198.612 20.5208 219 45.9054 219C71.1567 219 91.6775 198.612 91.6775 173.161V151.774H127.389V173.161C127.389 198.612 147.843 219 173.161 219C198.546 219 219 198.612 219 173.161C219 147.91 198.546 127.456 173.161 127.456H151.708V91.6109ZM127.456 91.6775H91.6775V127.456H127.456V91.6775ZM151.708 67.2924V45.7055C151.708 33.9127 161.302 24.3186 173.095 24.3186C185.087 24.3186 194.681 33.9127 194.681 45.7055C194.681 57.6982 185.087 67.2924 173.095 67.2924H151.708ZM45.972 24.3186C57.7648 24.3186 67.359 33.9127 67.359 45.7055V67.2924H45.972C33.9793 67.2924 24.3851 57.6982 24.3851 45.7055C24.3851 33.9127 33.9793 24.3186 45.972 24.3186ZM67.359 173.161V151.774H45.972C33.9793 151.774 24.3851 161.368 24.3851 173.161C24.3851 185.154 33.9793 194.748 45.972 194.748C57.7648 194.748 67.359 185.154 67.359 173.161ZM173.095 194.748C161.302 194.748 151.708 185.154 151.708 173.161V151.774H173.095C185.087 151.774 194.681 161.368 194.681 173.161C194.681 185.154 185.087 194.748 173.095 194.748Z"
        fill="#131313" />
</svg>