<?xml version="1.0" encoding="UTF-8"?><svg id="Layer_2" xmlns="http://www.w3.org/2000/svg" viewBox="0 0 516.33 86.58"><defs><style>.cls-1{fill:#fff;}</style></defs><g id="Layer_2-2"><g><path class="cls-1" d="M295.44,4.68h18.6l12.05,56.75,12.52-56.75h17.55l12.4,56.75,12.17-56.75h18.02l-19.77,81.9h-20.48l-11.47-48.67-11.35,48.67h-20.48L295.44,4.68Z"/><path class="cls-1" d="M405.18,0h16.97V16.97h-16.97V0Zm0,25.74h16.97v60.84h-16.97V25.74Z"/><path class="cls-1" d="M453.15,57.92v28.67h-16.97V0h16.97V54.52l20.01-28.78h18.96l-20.36,29.02,22.23,31.83h-20.71l-20.12-28.67Z"/><path class="cls-1" d="M499.37,0h16.97V16.97h-16.97V0Zm0,25.74h16.97v60.84h-16.97V25.74Z"/></g><g><path class="cls-1" d="M0,4.66H66.21v4.68h-30.39V86.58h-5.43V9.34H0V4.66Z"/><path class="cls-1" d="M75.01,4.66h48.27v4.68h-42.9V44.94h37.08v4.8h-37.08v36.85h-5.37V4.66Z"/><path class="cls-1" d="M185.55,47.96h-48.1v38.62h-5.37V4.66h5.37V43.17h48.1V4.66h5.37V86.58h-5.37V47.96Z"/><path class="cls-1" d="M261.94,29.51v-7.77c0-3.73-1.14-6.73-3.43-9-2.29-2.27-5.29-3.4-9.03-3.4h-23.25c-3.69,0-6.68,1.13-8.97,3.4-2.29,2.27-3.43,5.27-3.43,9v47.76c0,3.69,1.14,6.67,3.43,8.91s5.27,3.37,8.97,3.37h23.25c3.73,0,6.74-1.12,9.03-3.37s3.43-5.22,3.43-8.91v-7.83h5.37v7.94c0,5.03-1.56,9.11-4.68,12.25-3.12,3.14-7.22,4.71-12.28,4.71h-24.91c-5.03,0-9.11-1.57-12.25-4.71s-4.71-7.23-4.71-12.25V21.63c0-5.07,1.57-9.16,4.71-12.28,3.14-3.12,7.23-4.68,12.25-4.68h24.91c5.07,0,9.16,1.56,12.28,4.68s4.68,7.22,4.68,12.28v7.88h-5.37Z"/></g></g></svg>