<?xml version="1.0" encoding="UTF-8"?><svg id="Layer_2" xmlns="http://www.w3.org/2000/svg" viewBox="0 0 929.94 218.72"><defs><style>.cls-1{fill:#fff;}</style></defs><g id="Layer_2-2"><g><path class="cls-1" d="M0,4.68H66.21v4.68h-30.39V86.61h-5.43V9.37H0V4.68Z"/><path class="cls-1" d="M105.63,86.61l-.57-5.14c-2.82,3.43-6.84,5.14-12.05,5.14h-14.97c-4.68,0-8.46-1.42-11.31-4.26-2.86-2.84-4.28-6.6-4.28-11.28v-2.23c0-4.68,1.43-8.46,4.28-11.31,2.86-2.86,6.63-4.29,11.31-4.29h14.97c4.8,0,8.66,1.52,11.6,4.57v-16.62c0-3.35-1-6.02-3-8-2-1.98-4.68-2.97-8.03-2.97h-12.97c-3.35,0-6.03,.99-8.03,2.97-2,1.98-3,4.65-3,8v3.31h-5.14v-3.2c0-4.69,1.43-8.45,4.28-11.28,2.86-2.84,6.63-4.26,11.31-4.26h14.11c4.65,0,8.41,1.42,11.28,4.26,2.88,2.84,4.31,6.6,4.31,11.28v45.3h-4.11Zm-4.2-7.31c2-1.9,3.06-4.46,3.17-7.66v-3.77c-.11-3.16-1.17-5.7-3.17-7.63-2-1.92-4.62-2.88-7.85-2.88h-15.08c-3.35,0-6.03,1-8.03,3-2,2-3,4.67-3,8.03v2.8c0,3.35,1,6.02,3,8,2,1.98,4.68,2.97,8.03,2.97h15.08c3.24,0,5.86-.95,7.85-2.86Z"/><path class="cls-1" d="M169.1,57.87c2.86,2.86,4.28,6.63,4.28,11.31v1.88c0,4.68-1.43,8.45-4.28,11.28-2.86,2.84-6.63,4.26-11.31,4.26h-16.11c-4.68,0-8.46-1.42-11.31-4.26-2.86-2.84-4.28-6.6-4.28-11.28v-2.69h5.14v2.8c0,3.35,1,6.02,3,8,2,1.98,4.68,2.97,8.03,2.97h15.08c3.28,0,5.9-.99,7.88-2.97s2.97-4.65,2.97-8v-2.46c0-3.31-.99-5.98-2.97-8-1.98-2.02-4.61-3.03-7.88-3.03h-15.08c-4.68,0-8.46-1.42-11.31-4.26-2.86-2.84-4.28-6.6-4.28-11.28v-.86c0-4.69,1.43-8.45,4.28-11.28,2.86-2.84,6.63-4.26,11.31-4.26h14.97c4.68,0,8.45,1.42,11.28,4.26,2.84,2.84,4.26,6.6,4.26,11.28v2.74h-5.14v-2.86c0-3.35-.99-6.02-2.97-8s-4.61-2.97-7.88-2.97h-13.94c-3.35,0-6.03,.99-8.03,2.97-2,1.98-3,4.65-3,8v1.43c0,3.35,1,6.02,3,8,2,1.98,4.68,2.97,8.03,2.97h14.97c4.68,0,8.46,1.43,11.31,4.28Z"/><path class="cls-1" d="M194.87,56.9v29.71h-5.14V0h5.14V55.59l32.28-29.82h7.14l-32.79,30.16,34.33,30.68h-7.77l-33.19-29.71Z"/><path class="cls-1" d="M277.99,4.68h48.27v4.68h-42.9V44.96h37.08v4.8h-37.08v36.85h-5.37V4.68Z"/><path class="cls-1" d="M376.48,81.89c-3.12,3.14-7.22,4.71-12.28,4.71h-13.37c-5.03,0-9.11-1.57-12.25-4.71s-4.71-7.23-4.71-12.25v-26.91c0-5.07,1.57-9.16,4.71-12.28,3.14-3.12,7.23-4.68,12.25-4.68h13.37c5.1,0,9.21,1.55,12.31,4.66,3.1,3.1,4.66,7.21,4.66,12.31v26.91c0,5.03-1.56,9.11-4.68,12.25Zm-.51-39.28c0-3.81-1.11-6.83-3.34-9.05s-5.21-3.34-8.94-3.34h-12.28c-3.77,0-6.78,1.12-9.03,3.37s-3.37,5.26-3.37,9.03v27.14c0,3.73,1.13,6.73,3.4,9s5.27,3.4,9,3.4h12.28c3.73,0,6.71-1.13,8.94-3.4,2.23-2.27,3.34-5.27,3.34-9v-27.14Z"/><path class="cls-1" d="M427.32,30.22h-12.28c-3.69,0-6.66,1.07-8.88,3.2-2.23,2.13-3.4,5.01-3.51,8.63v44.56h-5.14V25.77h4.06l.46,6.11c3.05-4.08,7.54-6.11,13.48-6.11h11.83v4.46Z"/><path class="cls-1" d="M482.17,67.3v2.34c0,5.03-1.56,9.11-4.68,12.25-3.12,3.14-7.22,4.71-12.28,4.71h-13.37c-5.03,0-9.11-1.57-12.25-4.71s-4.71-7.23-4.71-12.25v-26.91c0-5.07,1.57-9.16,4.71-12.28,3.14-3.12,7.23-4.68,12.25-4.68h13.37c5.1,0,9.21,1.55,12.31,4.66,3.1,3.1,4.66,7.21,4.66,12.31v2.34h-5.2v-2.46c0-3.81-1.11-6.83-3.34-9.05s-5.21-3.34-8.94-3.34h-12.28c-3.77,0-6.78,1.12-9.03,3.37s-3.37,5.26-3.37,9.03v27.14c0,3.73,1.13,6.73,3.4,9s5.27,3.4,9,3.4h12.28c3.73,0,6.71-1.13,8.94-3.4,2.23-2.27,3.34-5.27,3.34-9v-2.46h5.2Z"/><path class="cls-1" d="M543.47,67.87v1.77c0,5.03-1.56,9.11-4.68,12.25-3.12,3.14-7.22,4.71-12.28,4.71h-13.37c-5.03,0-9.11-1.57-12.25-4.71-3.14-3.14-4.71-7.23-4.71-12.25v-26.91c0-5.07,1.57-9.16,4.71-12.28,3.14-3.12,7.23-4.68,12.25-4.68h13.37c5.1,0,9.21,1.55,12.31,4.66s4.66,7.21,4.66,12.31v14.62h-42.16v12.4c0,3.73,1.13,6.73,3.4,9,2.27,2.27,5.27,3.4,9,3.4h12.28c3.73,0,6.71-1.13,8.94-3.4,2.23-2.27,3.34-5.27,3.34-9v-1.88h5.2Zm-42.16-14.74h36.96v-10.51c0-3.81-1.11-6.83-3.34-9.05-2.23-2.23-5.21-3.34-8.94-3.34h-12.28c-3.77,0-6.78,1.12-9.03,3.37s-3.37,5.26-3.37,9.03v10.51Z"/><path class="cls-1" d="M648.36,47.99h-48.1v38.62h-5.37V4.68h5.37V43.19h48.1V4.68h5.37V86.61h-5.37V47.99Z"/><path class="cls-1" d="M717.37,67.87v1.77c0,5.03-1.56,9.11-4.68,12.25-3.12,3.14-7.22,4.71-12.28,4.71h-13.37c-5.03,0-9.11-1.57-12.25-4.71-3.14-3.14-4.71-7.23-4.71-12.25v-26.91c0-5.07,1.57-9.16,4.71-12.28,3.14-3.12,7.23-4.68,12.25-4.68h13.37c5.1,0,9.21,1.55,12.31,4.66s4.66,7.21,4.66,12.31v14.62h-42.16v12.4c0,3.73,1.13,6.73,3.4,9,2.27,2.27,5.27,3.4,9,3.4h12.28c3.73,0,6.71-1.13,8.94-3.4,2.23-2.27,3.34-5.27,3.34-9v-1.88h5.2Zm-42.16-14.74h36.96v-10.51c0-3.81-1.11-6.83-3.34-9.05-2.23-2.23-5.21-3.34-8.94-3.34h-12.28c-3.77,0-6.78,1.12-9.03,3.37s-3.37,5.26-3.37,9.03v10.51Z"/><path class="cls-1" d="M733.71,0h5.14V86.61h-5.14V0Z"/><path class="cls-1" d="M756.39,0h5.14V86.61h-5.14V0Z"/><path class="cls-1" d="M825.17,67.3v2.34c0,5.03-1.56,9.11-4.69,12.25-3.12,3.14-7.22,4.71-12.28,4.71h-13.37c-5.03,0-9.11-1.57-12.25-4.71s-4.71-7.23-4.71-12.25v-26.91c0-5.07,1.57-9.16,4.71-12.28,3.14-3.12,7.23-4.68,12.25-4.68h13.37c5.1,0,9.21,1.55,12.31,4.66,3.1,3.1,4.66,7.21,4.66,12.31v2.34h-5.2v-2.46c0-3.81-1.11-6.83-3.34-9.05s-5.21-3.34-8.94-3.34h-12.28c-3.77,0-6.78,1.12-9.03,3.37s-3.37,5.26-3.37,9.03v27.14c0,3.73,1.13,6.73,3.4,9s5.27,3.4,9,3.4h12.28c3.73,0,6.71-1.13,8.94-3.4,2.23-2.27,3.34-5.27,3.34-9v-2.46h5.2Z"/><path class="cls-1" d="M880.36,86.61l-.57-5.14c-2.82,3.43-6.84,5.14-12.05,5.14h-14.97c-4.69,0-8.46-1.42-11.31-4.26-2.86-2.84-4.28-6.6-4.28-11.28v-2.23c0-4.68,1.43-8.46,4.28-11.31s6.63-4.29,11.31-4.29h14.97c4.8,0,8.67,1.52,11.6,4.57v-16.62c0-3.35-1-6.02-3-8-2-1.98-4.67-2.97-8.03-2.97h-12.97c-3.35,0-6.03,.99-8.03,2.97-2,1.98-3,4.65-3,8v3.31h-5.14v-3.2c0-4.69,1.43-8.45,4.29-11.28,2.86-2.84,6.63-4.26,11.31-4.26h14.11c4.65,0,8.41,1.42,11.28,4.26,2.88,2.84,4.31,6.6,4.31,11.28v45.3h-4.11Zm-4.2-7.31c2-1.9,3.06-4.46,3.17-7.66v-3.77c-.11-3.16-1.17-5.7-3.17-7.63-2-1.92-4.62-2.88-7.85-2.88h-15.08c-3.35,0-6.03,1-8.03,3-2,2-3,4.67-3,8.03v2.8c0,3.35,1,6.02,3,8,2,1.98,4.68,2.97,8.03,2.97h15.08c3.24,0,5.86-.95,7.85-2.86Z"/><path class="cls-1" d="M893.21,25.77h15.77V5.88l5.2-1.31V25.77h15.77v4.46h-15.77v56.39h-5.2V30.22h-15.77v-4.46Z"/></g><g><path class="cls-1" d="M348.86,136.82h18.6l12.05,56.75,12.52-56.75h17.55l12.4,56.75,12.17-56.75h18.02l-19.77,81.9h-20.48l-11.47-48.67-11.35,48.67h-20.48l-19.77-81.9Z"/><path class="cls-1" d="M458.61,132.14h16.97v16.97h-16.97v-16.97Zm0,25.74h16.97v60.84h-16.97v-60.84Z"/><path class="cls-1" d="M506.58,190.05v28.67h-16.97v-86.58h16.97v54.52l20.01-28.78h18.95l-20.36,29.02,22.23,31.83h-20.71l-20.12-28.67Z"/><path class="cls-1" d="M552.79,132.14h16.96v16.97h-16.96v-16.97Zm0,25.74h16.96v60.84h-16.96v-60.84Z"/></g></g></svg>