<svg width="219" height="219" viewBox="0 0 219 219" xmlns="http://www.w3.org/2000/svg">
    <path d="M8.1871e-07 8C8.1871e-07 3.58172 3.58172 0 8 0H106V106H8.1871e-07V8Z" fill="#131313" />
    <path d="M219 211C219 215.418 215.418 219 211 219L113 219L113 113L219 113L219 211Z"
        fill="#131313" />
    <path
        d="M211 -3.49691e-07C215.418 -1.56562e-07 219 3.58172 219 8L219 106L113 106L113 -4.63341e-06L211 -3.49691e-07Z"
        fill="#131313" />
    <path
        d="M8 219C3.58172 219 6.62148e-07 215.418 4.69019e-07 211L-3.8147e-06 113L106 113L106 219L8 219Z"
        fill="#131313" />
</svg>