<svg xmlns="http://www.w3.org/2000/svg" xmlns:xlink="http://www.w3.org/1999/xlink" viewBox="0 0 104.94 39.69"><defs><style>.cls-1{fill:#fff;}.cls-2{fill:url(#Rainbow_2);}</style><linearGradient id="Rainbow_2" x1="7.23" y1="22.98" x2="104.94" y2="22.98" gradientUnits="userSpaceOnUse"><stop offset="0" stop-color="#ec1c24"/><stop offset="0.2" stop-color="#fff100"/><stop offset="0.4" stop-color="#00a551"/><stop offset="0.6" stop-color="#00a8ea"/><stop offset="0.8" stop-color="#2e3191"/><stop offset="1" stop-color="#eb008b"/></linearGradient></defs><g id="Layer_1" data-name="Layer 1"><path class="cls-1" d="M9.6,38.92l-1,.77s8.74-24,10.51-29S22.6,0,22.6,0h2.45Z"/><path class="cls-1" d="M34.11,18.78l3.41-9.35h3.23a3.13,3.13,0,0,1,1.56.32,1.49,1.49,0,0,1,.7.84,2.11,2.11,0,0,1,.08,1,2.44,2.44,0,0,1-.45,1.09,3.21,3.21,0,0,1-.77.71,3.9,3.9,0,0,1-.8.39,1.62,1.62,0,0,1,.56.34,2,2,0,0,1,.44.67,1.82,1.82,0,0,1,.06.94,3.37,3.37,0,0,1-.79,1.77,3.53,3.53,0,0,1-1.57,1,7.59,7.59,0,0,1-2.19.29Zm2.59-1.63h1.46A2.82,2.82,0,0,0,39,17a1.55,1.55,0,0,0,1-1.28A.91.91,0,0,0,39.9,15a1.1,1.1,0,0,0-.85-.26H37.59Zm1.45-4H39.3a2.57,2.57,0,0,0,.72-.11,1.5,1.5,0,0,0,.61-.38,1.46,1.46,0,0,0,.34-.74.69.69,0,0,0-.17-.68,1.3,1.3,0,0,0-.79-.19H38.92Z"/><path class="cls-1" d="M48.3,12a2.66,2.66,0,0,1,1.44.38,2.18,2.18,0,0,1,.88,1,2.68,2.68,0,0,1,.14,1.51,5,5,0,0,1-2.5,3.55,4.41,4.41,0,0,1-2.15.55,2.68,2.68,0,0,1-1.43-.38,2.18,2.18,0,0,1-.89-1.05,2.68,2.68,0,0,1-.15-1.51,4.88,4.88,0,0,1,.59-1.61,5.2,5.2,0,0,1,1.08-1.3,5.07,5.07,0,0,1,1.42-.87A4.11,4.11,0,0,1,48.3,12Zm-.55,1.71a1.74,1.74,0,0,0-.91.27,2.84,2.84,0,0,0-.8.75,2.74,2.74,0,0,0-.44,1.1,1.53,1.53,0,0,0,.14,1.07,1,1,0,0,0,.89.42,1.8,1.8,0,0,0,.91-.27,2.79,2.79,0,0,0,.8-.74,2.89,2.89,0,0,0,.45-1.11,1.55,1.55,0,0,0-.14-1.08A1,1,0,0,0,47.75,13.69Z"/><path class="cls-1" d="M51.22,18.78l3.42-9.35h1.93l-1.26,3.42a3.33,3.33,0,0,1,1.06-.62,3.48,3.48,0,0,1,1.13-.18,1.51,1.51,0,0,1,1.33.55,1.84,1.84,0,0,1,.24,1.47,2.29,2.29,0,0,1-.07.34,2.07,2.07,0,0,1-.1.33l-1.47,4h-2l1.34-3.69a1.9,1.9,0,0,0,.11-.39,1.05,1.05,0,0,0-.07-.68.65.65,0,0,0-.61-.26,1.5,1.5,0,0,0-1.12.49,3.22,3.22,0,0,0-.71,1.14l-1.24,3.39Z"/><path class="cls-1" d="M64.7,12a2.43,2.43,0,0,1,1.48.4,1.9,1.9,0,0,1,.72,1A3,3,0,0,1,67,14.77a6.57,6.57,0,0,1-.16.67,5.23,5.23,0,0,1-.24.65H62.18a1.07,1.07,0,0,0,.26,1,1.37,1.37,0,0,0,1,.38,2.93,2.93,0,0,0,1-.17,5.78,5.78,0,0,0,.91-.43l.56,1.27a6.6,6.6,0,0,1-1.4.65,5.12,5.12,0,0,1-1.58.24,3.46,3.46,0,0,1-1.51-.32,2.05,2.05,0,0,1-1-1,2.64,2.64,0,0,1-.15-1.67,5.15,5.15,0,0,1,.84-2.13,4.62,4.62,0,0,1,1.59-1.43A4.11,4.11,0,0,1,64.7,12Zm-2.21,2.85h2.64a.58.58,0,0,0,.05-.16l0-.11A.87.87,0,0,0,65,13.8a1,1,0,0,0-.75-.28,1.81,1.81,0,0,0-1,.32A2.27,2.27,0,0,0,62.49,14.83Z"/><path class="cls-1" d="M69.43,18.78H67.49l2.4-6.58h1.88l-.2.73a3.56,3.56,0,0,1,1.14-.71,3.9,3.9,0,0,1,1.15-.17,1.37,1.37,0,0,1,1.39.91,4.07,4.07,0,0,1,1.17-.7,3.83,3.83,0,0,1,1.33-.21,1.73,1.73,0,0,1,1.41.55,1.67,1.67,0,0,1,.32,1.47c0,.11,0,.22-.07.34s-.06.22-.1.33l-1.47,4h-2l1.34-3.69a1.9,1.9,0,0,0,.11-.39,1,1,0,0,0-.08-.68.58.58,0,0,0-.56-.26,1.5,1.5,0,0,0-1.12.49,3.22,3.22,0,0,0-.71,1.14l-1.24,3.39H71.68L73,15.09a1.9,1.9,0,0,0,.11-.39,1,1,0,0,0-.08-.68.59.59,0,0,0-.56-.26,1.49,1.49,0,0,0-1.12.49,3.22,3.22,0,0,0-.71,1.14Z"/><path class="cls-1" d="M79.92,18.78l2.41-6.58h2l-2.4,6.58Zm2.68-7.56.66-1.78h2.1l-.66,1.78Z"/><path class="cls-1" d="M87.82,18.78l.17-.62a3.1,3.1,0,0,1-1,.63,3,3,0,0,1-1.06.19,1.68,1.68,0,0,1-1.26-.5,1.54,1.54,0,0,1-.32-1.4,2.72,2.72,0,0,1,1.18-1.83,4.35,4.35,0,0,1,2.52-.69l.61,0,.61.06,0-.14a.56.56,0,0,0,0-.12l0-.11a.5.5,0,0,0-.26-.6,1.83,1.83,0,0,0-.81-.16,3,3,0,0,0-1.06.16,6.6,6.6,0,0,0-.85.37l-.5-1.21a6.34,6.34,0,0,1,1.32-.58A5.54,5.54,0,0,1,89,12a2.42,2.42,0,0,1,1.81.59,1.84,1.84,0,0,1,.39,1.71A3.72,3.72,0,0,1,91,15l-1.4,3.81Zm.81-2.4.18-.49-.34-.05a3.48,3.48,0,0,0-.49,0,2.12,2.12,0,0,0-1.19.28,1.07,1.07,0,0,0-.5.71.59.59,0,0,0,.12.54.74.74,0,0,0,.55.19,2,2,0,0,0,.94-.26A1.57,1.57,0,0,0,88.63,16.38Z"/><path class="cls-1" d="M28.53,34.08,32,24.72h2l-3.42,9.36Z"/><path class="cls-1" d="M33,34.08l2.41-6.58h1.87l-.21.71a3.58,3.58,0,0,1,1.06-.67,3.28,3.28,0,0,1,1.16-.2,1.54,1.54,0,0,1,1.33.55,1.94,1.94,0,0,1,.24,1.47,3.4,3.4,0,0,1-.07.34c0,.11-.06.23-.1.34l-1.48,4h-2l1.35-3.69a2.28,2.28,0,0,0,.11-.41,1,1,0,0,0-.08-.67.66.66,0,0,0-.6-.25,1.49,1.49,0,0,0-1.12.49,3,3,0,0,0-.71,1.13l-1.24,3.4Z"/><path class="cls-1" d="M42.42,31.6l.94-2.54h-1l.56-1.56h1l.76-2.13h2l-.77,2.13h1.66L47,29.06H45.33l-1,2.65a1.65,1.65,0,0,0-.11.36.59.59,0,0,0,.08.45.5.5,0,0,0,.43.17,1.28,1.28,0,0,0,.5-.09,2.62,2.62,0,0,0,.5-.28l.58,1.22a4,4,0,0,1-2.31.78c-1.45,0-2.06-.63-1.85-1.88a2.22,2.22,0,0,1,.1-.41C42.32,31.89,42.37,31.74,42.42,31.6Z"/><path class="cls-1" d="M52.35,27.27a2.48,2.48,0,0,1,1.48.4,2,2,0,0,1,.73,1,3.09,3.09,0,0,1,.06,1.36,4.54,4.54,0,0,1-.16.66,4.7,4.7,0,0,1-.24.65H49.83a1.07,1.07,0,0,0,.27,1,1.33,1.33,0,0,0,1,.38,2.93,2.93,0,0,0,1-.17,5.44,5.44,0,0,0,.91-.44l.57,1.28a6.87,6.87,0,0,1-1.41.64,5.12,5.12,0,0,1-1.58.24A3.45,3.45,0,0,1,49.06,34a2.07,2.07,0,0,1-1-1,2.67,2.67,0,0,1-.16-1.68,5,5,0,0,1,.85-2.12,4.49,4.49,0,0,1,1.58-1.43A4.12,4.12,0,0,1,52.35,27.27Zm-2.21,2.85h2.64a.33.33,0,0,0,0-.15l0-.11a.84.84,0,0,0-.17-.76.92.92,0,0,0-.74-.28,1.83,1.83,0,0,0-1,.31A2.27,2.27,0,0,0,50.14,30.12Z"/><path class="cls-1" d="M55.14,34.08l2.4-6.58h1.87l-.24.83a4.17,4.17,0,0,1,.94-.68,2.27,2.27,0,0,1,1.12-.28,2.87,2.87,0,0,1,.44,0l.39.12-.92,1.75a1.09,1.09,0,0,0-.36-.1,2,2,0,0,0-.36,0,1.94,1.94,0,0,0-1.33.53A3.17,3.17,0,0,0,58.21,31L57.1,34.08Z"/><path class="cls-1" d="M65,34.08l.18-.62a3,3,0,0,1-2.07.81,1.65,1.65,0,0,1-1.25-.49,1.55,1.55,0,0,1-.33-1.4,2.73,2.73,0,0,1,1.19-1.83,4.32,4.32,0,0,1,2.51-.69,5.73,5.73,0,0,1,.62,0l.6.06.06-.14c0-.05,0-.09,0-.13l0-.11a.49.49,0,0,0-.27-.59,1.78,1.78,0,0,0-.8-.17A3.12,3.12,0,0,0,64.4,29a6.42,6.42,0,0,0-.85.37l-.49-1.21a6.89,6.89,0,0,1,1.32-.59,5.5,5.5,0,0,1,1.78-.27,2.46,2.46,0,0,1,1.81.59,1.86,1.86,0,0,1,.39,1.71,3.61,3.61,0,0,1-.19.69l-1.39,3.82Zm.82-2.4.18-.49-.34-.06a3.58,3.58,0,0,0-.49,0,2.2,2.2,0,0,0-1.19.28,1.09,1.09,0,0,0-.5.72.6.6,0,0,0,.12.54.72.72,0,0,0,.55.19,2,2,0,0,0,.93-.27A1.52,1.52,0,0,0,65.78,31.68Z"/><path class="cls-1" d="M74.18,31.89,75,33.15a6.6,6.6,0,0,1-1.34.82A4.16,4.16,0,0,1,72,34.3a2.67,2.67,0,0,1-1.45-.37,2.12,2.12,0,0,1-.85-1,2.67,2.67,0,0,1-.12-1.48,4.89,4.89,0,0,1,.86-2.09A5,5,0,0,1,72,27.84a4.15,4.15,0,0,1,2.13-.57,2.37,2.37,0,0,1,1.55.46A2.18,2.18,0,0,1,76.45,29l-1.69.8a1.44,1.44,0,0,0-.37-.6,1.05,1.05,0,0,0-.69-.2,1.67,1.67,0,0,0-.88.27A2.55,2.55,0,0,0,72,30a2.93,2.93,0,0,0-.45,1.16,1.15,1.15,0,0,0,.2,1,1,1,0,0,0,.81.35,1.86,1.86,0,0,0,.85-.19A3.61,3.61,0,0,0,74.18,31.89Z"/><path class="cls-1" d="M77.66,31.6l.94-2.54h-1l.56-1.56h1l.76-2.13h2l-.77,2.13h1.66l-.56,1.56H80.57l-1,2.65a1.65,1.65,0,0,0-.11.36.59.59,0,0,0,.08.45.5.5,0,0,0,.43.17,1.31,1.31,0,0,0,.5-.09,2.31,2.31,0,0,0,.49-.28l.59,1.22a4,4,0,0,1-2.31.78c-1.45,0-2.06-.63-1.85-1.88a3.38,3.38,0,0,1,.09-.41Z"/><path class="cls-1" d="M82.7,34.08l2.4-6.58h2l-2.4,6.58Zm2.68-7.56L86,24.74h2.1l-.66,1.78Z"/><path class="cls-1" d="M88.67,34.08l-.32-6.58h2.11l-.07,4.39,3-4.39h2.19l-5.1,6.58Z"/><path class="cls-1" d="M99.62,27.27a2.48,2.48,0,0,1,1.48.4,2,2,0,0,1,.73,1,3.09,3.09,0,0,1,.06,1.36,4.54,4.54,0,0,1-.16.66,6.35,6.35,0,0,1-.23.65H97.1a1.07,1.07,0,0,0,.27,1,1.33,1.33,0,0,0,1,.38,2.93,2.93,0,0,0,1-.17,5.44,5.44,0,0,0,.91-.44l.57,1.28a6.87,6.87,0,0,1-1.41.64,5.08,5.08,0,0,1-1.58.24A3.45,3.45,0,0,1,96.33,34a2.12,2.12,0,0,1-1-1,2.67,2.67,0,0,1-.16-1.68A5.18,5.18,0,0,1,96,29.22a4.49,4.49,0,0,1,1.58-1.43A4.15,4.15,0,0,1,99.62,27.27Zm-2.21,2.85h2.64a.33.33,0,0,0,0-.15l0-.11a.84.84,0,0,0-.17-.76.92.92,0,0,0-.74-.28,1.83,1.83,0,0,0-1,.31A2.27,2.27,0,0,0,97.41,30.12Z"/><path class="cls-1" d="M27.67,11.42c-2-2.51-5.17-3.79-9-3.59A20.14,20.14,0,0,0,7.5,12.26,18.71,18.71,0,0,0,1.73,19h2a17.2,17.2,0,0,1,4.68-5.58A18.65,18.65,0,0,1,18.72,9.3c3.37-.17,6.13.9,7.78,3s2,5.07,1,8.29a18.78,18.78,0,0,1-6.51,9C14.53,34.68,6.23,35,2.5,30.73A7,7,0,0,1,.81,27.5L0,26.74a8.67,8.67,0,0,0,1.76,4.88A10.19,10.19,0,0,0,10,35.21a19.79,19.79,0,0,0,11.89-4.44A20.1,20.1,0,0,0,29,21C30.08,17.35,29.63,13.93,27.67,11.42Z"/><path class="cls-2" d="M104.47,22.33H32.7c-19,0-25.47,2.41-25.47,2.41l2.5-3.52h95.21Z"/></g></svg>